<svg width="512" height="512" viewBox="0 0 512 512" fill="none" xmlns="http://www.w3.org/2000/svg">
  <rect width="512" height="512" rx="80" fill="url(#gradient)"/>
  <path d="M256 128C185.307 128 128 185.307 128 256C128 326.693 185.307 384 256 384C326.693 384 384 326.693 384 256C384 185.307 326.693 128 256 128ZM256 352C203.019 352 160 308.981 160 256C160 203.019 203.019 160 256 160C308.981 160 352 203.019 352 256C352 308.981 308.981 352 256 352Z" fill="white"/>
  <path d="M224 208C224 194.745 234.745 184 248 184C261.255 184 272 194.745 272 208C272 221.255 261.255 232 248 232C234.745 232 224 221.255 224 208Z" fill="white"/>
  <path d="M264 264C264 250.745 274.745 240 288 240C301.255 240 312 250.745 312 264C312 277.255 301.255 288 288 288C274.745 288 264 277.255 264 264Z" fill="white"/>
  <path d="M200 264C200 250.745 210.745 240 224 240C237.255 240 248 250.745 248 264C248 277.255 237.255 288 224 288C210.745 288 200 277.255 200 264Z" fill="white"/>
  <defs>
    <linearGradient id="gradient" x1="0%" y1="0%" x2="100%" y2="100%">
      <stop offset="0%" style="stop-color:#8B5CF6;stop-opacity:1" />
      <stop offset="100%" style="stop-color:#EC4899;stop-opacity:1" />
    </linearGradient>
  </defs>
</svg> 